<svg xmlns="http://www.w3.org/2000/svg" viewBox="0 0 1200 675" width="1200" height="675">
  <defs>
    <linearGradient id="bg" x1="0%" y1="0%" x2="100%" y2="100%">
      <stop offset="0%" stop-color="#0f172a"/>
      <stop offset="100%" stop-color="#1e293b"/>
    </linearGradient>
    <linearGradient id="blue" x1="0%" y1="0%" x2="100%" y2="0%">
      <stop offset="0%" stop-color="#3b82f6"/>
      <stop offset="100%" stop-color="#60a5fa"/>
    </linearGradient>
    <linearGradient id="purple" x1="0%" y1="0%" x2="100%" y2="0%">
      <stop offset="0%" stop-color="#8b5cf6"/>
      <stop offset="100%" stop-color="#a78bfa"/>
    </linearGradient>
    <linearGradient id="green" x1="0%" y1="0%" x2="100%" y2="0%">
      <stop offset="0%" stop-color="#22c55e"/>
      <stop offset="100%" stop-color="#4ade80"/>
    </linearGradient>
    <filter id="col-glow">
      <feDropShadow dx="0" dy="0" stdDeviation="8" flood-color="#3b82f6" flood-opacity="0.25"/>
    </filter>
  </defs>

  <rect width="1200" height="675" fill="url(#bg)"/>

  <!-- Decorative grid dots -->
  <defs>
    <pattern id="dots" x="0" y="0" width="30" height="30" patternUnits="userSpaceOnUse">
      <circle cx="2" cy="2" r="1" fill="white"/>
    </pattern>
  </defs>
  <rect x="0" y="0" width="1200" height="675" fill="url(#dots)" opacity="0.04"/>

  <!-- Hex logo mark -->
  <g transform="translate(80, 28)">
    <polygon points="22,0 44,12 44,36 22,48 0,36 0,12" fill="none" stroke="#0ee6f6" stroke-width="1.5" opacity="0.6"/>
    <polygon points="22,8 36,16 36,32 22,40 8,32 8,16" fill="none" stroke="#0ee6f6" stroke-width="1.2" opacity="0.8"/>
    <circle cx="22" cy="24" r="3" fill="#0ee6f6"/>
    <path d="M12,10 L8,12 L8,16" fill="none" stroke="#0ee6f6" stroke-width="1.2"/>
    <path d="M32,10 L36,12 L36,16" fill="none" stroke="#0ee6f6" stroke-width="1.2"/>
    <path d="M12,38 L8,36 L8,32" fill="none" stroke="#0ee6f6" stroke-width="1.2"/>
    <path d="M32,38 L36,36 L36,32" fill="none" stroke="#0ee6f6" stroke-width="1.2"/>
  </g>
  <text x="140" y="56" font-family="system-ui, sans-serif" font-size="20" font-weight="700">
    <tspan fill="#94a3b8">CVE</tspan><tspan fill="#0ee6f6">RiskPilot</tspan>
  </text>

  <!-- Title -->
  <text x="600" y="110" text-anchor="middle" font-family="system-ui, sans-serif" font-size="34" font-weight="800" fill="white">Only CVERiskPilot Maps Code to Compliance</text>

  <!-- ===================== -->
  <!-- COMPARISON TABLE       -->
  <!-- ===================== -->
  <!-- Layout: label col 60-280, then 5 data cols of ~172px each starting at 290 -->
  <!-- Col centers: 376, 548, 720, 892, 1064 -->
  <!-- Rows: header=160, row heights=56, starting at y=170 -->

  <!-- Column highlight for CVERiskPilot -->
  <rect x="290" y="148" width="172" height="360" rx="10" fill="#3b82f6" opacity="0.06" filter="url(#col-glow)"/>
  <rect x="290" y="148" width="172" height="360" rx="10" fill="none" stroke="#3b82f6" stroke-width="1" stroke-opacity="0.3"/>

  <!-- Header row -->
  <g font-family="system-ui, sans-serif" font-size="13" font-weight="700" fill="#94a3b8">
    <!-- Row label (empty for header) -->
    <text x="170" y="178" text-anchor="middle" fill="#475569" font-size="11">FEATURE</text>

    <!-- Column headers -->
    <text x="376" y="172" text-anchor="middle" font-size="14" fill="#0ee6f6">CVERisk</text>
    <text x="376" y="188" text-anchor="middle" font-size="14" fill="#0ee6f6">Pilot</text>

    <text x="548" y="180" text-anchor="middle">Snyk</text>
    <text x="720" y="180" text-anchor="middle">SonarQube</text>
    <text x="892" y="180" text-anchor="middle">Semgrep</text>
    <text x="1064" y="172" text-anchor="middle">GitHub</text>
    <text x="1064" y="188" text-anchor="middle">GHAS</text>
  </g>

  <!-- Divider below header -->
  <line x1="60" y1="200" x2="1140" y2="200" stroke="#334155" stroke-width="1"/>

  <!-- ROW 1: Code Scanning — y=228 -->
  <rect x="60" y="208" width="1080" height="56" rx="0" fill="#1e293b" opacity="0.4"/>
  <text x="170" y="242" text-anchor="middle" font-family="system-ui, sans-serif" font-size="14" font-weight="600" fill="white">Code Scanning</text>
  <!-- All checkmarks -->
  <circle cx="376" cy="236" r="14" fill="#22c55e" opacity="0.15"/><text x="376" y="241" text-anchor="middle" font-family="system-ui, sans-serif" font-size="16" fill="#4ade80">&#x2713;</text>
  <circle cx="548" cy="236" r="14" fill="#22c55e" opacity="0.15"/><text x="548" y="241" text-anchor="middle" font-family="system-ui, sans-serif" font-size="16" fill="#4ade80">&#x2713;</text>
  <circle cx="720" cy="236" r="14" fill="#22c55e" opacity="0.15"/><text x="720" y="241" text-anchor="middle" font-family="system-ui, sans-serif" font-size="16" fill="#4ade80">&#x2713;</text>
  <circle cx="892" cy="236" r="14" fill="#22c55e" opacity="0.15"/><text x="892" y="241" text-anchor="middle" font-family="system-ui, sans-serif" font-size="16" fill="#4ade80">&#x2713;</text>
  <circle cx="1064" cy="236" r="14" fill="#22c55e" opacity="0.15"/><text x="1064" y="241" text-anchor="middle" font-family="system-ui, sans-serif" font-size="16" fill="#4ade80">&#x2713;</text>

  <!-- Divider -->
  <line x1="60" y1="264" x2="1140" y2="264" stroke="#334155" stroke-width="0.5"/>

  <!-- ROW 2: Compliance Mapping — y=292 -->
  <text x="170" y="298" text-anchor="middle" font-family="system-ui, sans-serif" font-size="14" font-weight="600" fill="white">Compliance Mapping</text>
  <circle cx="376" cy="292" r="14" fill="#22c55e" opacity="0.15"/><text x="376" y="297" text-anchor="middle" font-family="system-ui, sans-serif" font-size="16" fill="#4ade80">&#x2713;</text>
  <circle cx="548" cy="292" r="14" fill="#ef4444" opacity="0.1"/><text x="548" y="298" text-anchor="middle" font-family="system-ui, sans-serif" font-size="14" font-weight="700" fill="#f87171">&#x2717;</text>
  <circle cx="720" cy="292" r="14" fill="#ef4444" opacity="0.1"/><text x="720" y="298" text-anchor="middle" font-family="system-ui, sans-serif" font-size="14" font-weight="700" fill="#f87171">&#x2717;</text>
  <circle cx="892" cy="292" r="14" fill="#ef4444" opacity="0.1"/><text x="892" y="298" text-anchor="middle" font-family="system-ui, sans-serif" font-size="14" font-weight="700" fill="#f87171">&#x2717;</text>
  <circle cx="1064" cy="292" r="14" fill="#ef4444" opacity="0.1"/><text x="1064" y="298" text-anchor="middle" font-family="system-ui, sans-serif" font-size="14" font-weight="700" fill="#f87171">&#x2717;</text>

  <!-- Divider -->
  <line x1="60" y1="320" x2="1140" y2="320" stroke="#334155" stroke-width="0.5"/>

  <!-- ROW 3: Auto-POAM — y=348 -->
  <rect x="60" y="328" width="1080" height="56" rx="0" fill="#1e293b" opacity="0.4"/>
  <text x="170" y="362" text-anchor="middle" font-family="system-ui, sans-serif" font-size="14" font-weight="600" fill="white">Auto-POAM</text>
  <circle cx="376" cy="356" r="14" fill="#22c55e" opacity="0.15"/><text x="376" y="361" text-anchor="middle" font-family="system-ui, sans-serif" font-size="16" fill="#4ade80">&#x2713;</text>
  <circle cx="548" cy="356" r="14" fill="#ef4444" opacity="0.1"/><text x="548" y="362" text-anchor="middle" font-family="system-ui, sans-serif" font-size="14" font-weight="700" fill="#f87171">&#x2717;</text>
  <circle cx="720" cy="356" r="14" fill="#ef4444" opacity="0.1"/><text x="720" y="362" text-anchor="middle" font-family="system-ui, sans-serif" font-size="14" font-weight="700" fill="#f87171">&#x2717;</text>
  <circle cx="892" cy="356" r="14" fill="#ef4444" opacity="0.1"/><text x="892" y="362" text-anchor="middle" font-family="system-ui, sans-serif" font-size="14" font-weight="700" fill="#f87171">&#x2717;</text>
  <circle cx="1064" cy="356" r="14" fill="#ef4444" opacity="0.1"/><text x="1064" y="362" text-anchor="middle" font-family="system-ui, sans-serif" font-size="14" font-weight="700" fill="#f87171">&#x2717;</text>

  <!-- Divider -->
  <line x1="60" y1="384" x2="1140" y2="384" stroke="#334155" stroke-width="0.5"/>

  <!-- ROW 4: Multi-Framework — y=412 -->
  <text x="170" y="418" text-anchor="middle" font-family="system-ui, sans-serif" font-size="14" font-weight="600" fill="white">Multi-Framework</text>
  <text x="170" y="433" text-anchor="middle" font-family="system-ui, sans-serif" font-size="10" fill="#64748b">(NIST, CMMC, SOC2...)</text>
  <circle cx="376" cy="420" r="14" fill="#22c55e" opacity="0.15"/><text x="376" y="425" text-anchor="middle" font-family="system-ui, sans-serif" font-size="16" fill="#4ade80">&#x2713;</text>
  <circle cx="548" cy="420" r="14" fill="#ef4444" opacity="0.1"/><text x="548" y="426" text-anchor="middle" font-family="system-ui, sans-serif" font-size="14" font-weight="700" fill="#f87171">&#x2717;</text>
  <circle cx="720" cy="420" r="14" fill="#ef4444" opacity="0.1"/><text x="720" y="426" text-anchor="middle" font-family="system-ui, sans-serif" font-size="14" font-weight="700" fill="#f87171">&#x2717;</text>
  <circle cx="892" cy="420" r="14" fill="#ef4444" opacity="0.1"/><text x="892" y="426" text-anchor="middle" font-family="system-ui, sans-serif" font-size="14" font-weight="700" fill="#f87171">&#x2717;</text>
  <circle cx="1064" cy="420" r="14" fill="#ef4444" opacity="0.1"/><text x="1064" y="426" text-anchor="middle" font-family="system-ui, sans-serif" font-size="14" font-weight="700" fill="#f87171">&#x2717;</text>

  <!-- Divider -->
  <line x1="60" y1="448" x2="1140" y2="448" stroke="#334155" stroke-width="0.5"/>

  <!-- ROW 5: Self-Serve Pricing — y=476 -->
  <rect x="60" y="456" width="1080" height="56" rx="0" fill="#1e293b" opacity="0.4"/>
  <text x="170" y="490" text-anchor="middle" font-family="system-ui, sans-serif" font-size="14" font-weight="600" fill="white">Self-Serve Pricing</text>
  <circle cx="376" cy="484" r="14" fill="#22c55e" opacity="0.15"/><text x="376" y="489" text-anchor="middle" font-family="system-ui, sans-serif" font-size="16" fill="#4ade80">&#x2713;</text>
  <circle cx="548" cy="484" r="14" fill="#22c55e" opacity="0.15"/><text x="548" y="489" text-anchor="middle" font-family="system-ui, sans-serif" font-size="16" fill="#4ade80">&#x2713;</text>
  <circle cx="720" cy="484" r="14" fill="#ef4444" opacity="0.1"/><text x="720" y="490" text-anchor="middle" font-family="system-ui, sans-serif" font-size="14" font-weight="700" fill="#f87171">&#x2717;</text>
  <circle cx="892" cy="484" r="14" fill="#22c55e" opacity="0.15"/><text x="892" y="489" text-anchor="middle" font-family="system-ui, sans-serif" font-size="16" fill="#4ade80">&#x2713;</text>
  <circle cx="1064" cy="484" r="14" fill="#ef4444" opacity="0.1"/><text x="1064" y="490" text-anchor="middle" font-family="system-ui, sans-serif" font-size="14" font-weight="700" fill="#f87171">&#x2717;</text>

  <!-- Bottom border of table -->
  <line x1="60" y1="512" x2="1140" y2="512" stroke="#334155" stroke-width="1"/>

  <!-- Scorecard below table -->
  <g transform="translate(376, 536)">
    <rect x="-50" y="0" width="100" height="24" rx="12" fill="#22c55e" opacity="0.15"/>
    <text x="0" y="17" text-anchor="middle" font-family="system-ui, sans-serif" font-size="12" font-weight="700" fill="#4ade80">5 / 5</text>
  </g>
  <g transform="translate(548, 536)">
    <rect x="-50" y="0" width="100" height="24" rx="12" fill="#f59e0b" opacity="0.1"/>
    <text x="0" y="17" text-anchor="middle" font-family="system-ui, sans-serif" font-size="12" font-weight="600" fill="#fbbf24">2 / 5</text>
  </g>
  <g transform="translate(720, 536)">
    <rect x="-50" y="0" width="100" height="24" rx="12" fill="#ef4444" opacity="0.08"/>
    <text x="0" y="17" text-anchor="middle" font-family="system-ui, sans-serif" font-size="12" font-weight="600" fill="#f87171">1 / 5</text>
  </g>
  <g transform="translate(892, 536)">
    <rect x="-50" y="0" width="100" height="24" rx="12" fill="#ef4444" opacity="0.08"/>
    <text x="0" y="17" text-anchor="middle" font-family="system-ui, sans-serif" font-size="12" font-weight="600" fill="#f87171">2 / 5</text>
  </g>
  <g transform="translate(1064, 536)">
    <rect x="-50" y="0" width="100" height="24" rx="12" fill="#ef4444" opacity="0.08"/>
    <text x="0" y="17" text-anchor="middle" font-family="system-ui, sans-serif" font-size="12" font-weight="600" fill="#f87171">1 / 5</text>
  </g>

  <!-- Bottom: CTA + domain -->
  <text x="600" y="610" text-anchor="middle" font-family="system-ui, sans-serif" font-size="20" font-weight="700" fill="white">Start Free -- No Sales Call</text>
  <text x="600" y="640" text-anchor="middle" font-family="system-ui, sans-serif" font-size="15" font-weight="600" fill="#0ee6f6">cveriskpilot.com</text>

  <!-- Bottom accent line -->
  <rect x="0" y="670" width="1200" height="5" fill="url(#blue)"/>
</svg>