<svg xmlns="http://www.w3.org/2000/svg" viewBox="0 0 1200 1050" font-family="Inter, -apple-system, sans-serif">
  <defs>
    <linearGradient id="bg2" x1="0%" y1="0%" x2="0%" y2="100%">
      <stop offset="0%" style="stop-color:#0f172a"/>
      <stop offset="100%" style="stop-color:#1e293b"/>
    </linearGradient>
  </defs>

  <!-- Background -->
  <rect width="1200" height="1050" fill="url(#bg2)" rx="12"/>

  <!-- Header -->
  <text x="600" y="42" text-anchor="middle" fill="#f8fafc" font-size="24" font-weight="700">Real Scan: CVERiskPilot Scans Itself</text>
  <text x="600" y="66" text-anchor="middle" fill="#94a3b8" font-size="13">v0.3.0-beta | March 31, 2026 | npx @cveriskpilot/scan --preset startup</text>

  <!-- Command bar -->
  <rect x="300" y="82" width="600" height="34" rx="6" fill="#1e293b" stroke="#334155" stroke-width="1"/>
  <text x="320" y="103" fill="#4ade80" font-size="13" font-weight="600">$</text>
  <text x="336" y="103" fill="#e2e8f0" font-size="13" font-family="monospace">npx @cveriskpilot/scan --preset startup</text>
  <text x="870" y="103" fill="#64748b" font-size="11">28s</text>

  <!-- ═══ ROW 1: Scan Summary ═══ -->
  <text x="60" y="148" fill="#60a5fa" font-size="12" font-weight="600" letter-spacing="1.5">SCAN SUMMARY</text>

  <!-- Stat cards -->
  <rect x="40" y="160" width="200" height="90" rx="8" fill="#1e293b" stroke="#334155" stroke-width="1"/>
  <text x="140" y="190" text-anchor="middle" fill="#60a5fa" font-size="36" font-weight="700">897</text>
  <text x="140" y="210" text-anchor="middle" fill="#94a3b8" font-size="11">Dependencies (npm)</text>
  <text x="140" y="240" text-anchor="middle" fill="#64748b" font-size="10">package-lock.json</text>

  <rect x="260" y="160" width="200" height="90" rx="8" fill="#1e293b" stroke="#334155" stroke-width="1"/>
  <text x="360" y="190" text-anchor="middle" fill="#60a5fa" font-size="36" font-weight="700">1,001</text>
  <text x="360" y="210" text-anchor="middle" fill="#94a3b8" font-size="11">Files Scanned</text>
  <text x="360" y="240" text-anchor="middle" fill="#64748b" font-size="10">secrets detection</text>

  <rect x="480" y="160" width="200" height="90" rx="8" fill="#1e293b" stroke="#334155" stroke-width="1"/>
  <text x="580" y="190" text-anchor="middle" fill="#60a5fa" font-size="36" font-weight="700">129</text>
  <text x="580" y="210" text-anchor="middle" fill="#94a3b8" font-size="11">API Routes Analyzed</text>
  <text x="580" y="240" text-anchor="middle" fill="#64748b" font-size="10">auth, CSRF, input val</text>

  <rect x="700" y="160" width="200" height="90" rx="8" fill="#1e293b" stroke="#334155" stroke-width="1"/>
  <text x="800" y="190" text-anchor="middle" fill="#60a5fa" font-size="36" font-weight="700">22</text>
  <text x="800" y="210" text-anchor="middle" fill="#94a3b8" font-size="11">IaC Files Checked</text>
  <text x="800" y="240" text-anchor="middle" fill="#64748b" font-size="10">29 rules passed</text>

  <rect x="920" y="160" width="240" height="90" rx="8" fill="#1e293b" stroke="#334155" stroke-width="1"/>
  <text x="1040" y="190" text-anchor="middle" fill="#f8fafc" font-size="36" font-weight="700">87</text>
  <text x="1040" y="210" text-anchor="middle" fill="#94a3b8" font-size="11">Total Findings</text>
  <text x="1040" y="240" text-anchor="middle" fill="#64748b" font-size="10">across 4 scanners</text>

  <!-- ═══ ROW 2: Severity + Verdicts ═══ -->
  <text x="60" y="290" fill="#f87171" font-size="12" font-weight="600" letter-spacing="1.5">SEVERITY DISTRIBUTION</text>
  <text x="620" y="290" fill="#4ade80" font-size="12" font-weight="600" letter-spacing="1.5">AUTO-TRIAGE VERDICTS</text>

  <!-- Severity bars -->
  <g transform="translate(40, 305)">
    <!-- CRITICAL -->
    <rect x="0" y="0" width="520" height="32" rx="4" fill="#1e293b"/>
    <rect x="0" y="0" width="60" height="32" rx="4" fill="#dc2626"/>
    <text x="10" y="21" fill="#fef2f2" font-size="12" font-weight="700">10</text>
    <text x="75" y="21" fill="#fca5a5" font-size="12" font-weight="600">CRITICAL</text>

    <!-- HIGH -->
    <rect x="0" y="38" width="520" height="32" rx="4" fill="#1e293b"/>
    <rect x="0" y="38" width="281" height="32" rx="4" fill="#ea580c"/>
    <text x="10" y="59" fill="#fff7ed" font-size="12" font-weight="700">47</text>
    <text x="295" y="59" fill="#fdba74" font-size="12" font-weight="600">HIGH</text>

    <!-- MEDIUM -->
    <rect x="0" y="76" width="520" height="32" rx="4" fill="#1e293b"/>
    <rect x="0" y="76" width="155" height="32" rx="4" fill="#ca8a04"/>
    <text x="10" y="97" fill="#fefce8" font-size="12" font-weight="700">26</text>
    <text x="170" y="97" fill="#fde047" font-size="12" font-weight="600">MEDIUM</text>

    <!-- LOW -->
    <rect x="0" y="114" width="520" height="32" rx="4" fill="#1e293b"/>
    <rect x="0" y="114" width="24" height="32" rx="4" fill="#2563eb"/>
    <text x="35" y="135" fill="#93c5fd" font-size="12" font-weight="700">4 LOW</text>
  </g>

  <!-- Verdict donut (simplified as bars) -->
  <g transform="translate(620, 305)">
    <rect x="0" y="0" width="530" height="45" rx="6" fill="#1e293b" stroke="#334155" stroke-width="1"/>
    <rect x="4" y="4" width="290" height="37" rx="4" fill="#16a34a" fill-opacity="0.4"/>
    <text x="14" y="28" fill="#4ade80" font-size="14" font-weight="700">48 True Positive (55%)</text>
    <text x="320" y="28" fill="#94a3b8" font-size="11">Fix these</text>

    <rect x="0" y="52" width="530" height="45" rx="6" fill="#1e293b" stroke="#334155" stroke-width="1"/>
    <rect x="4" y="56" width="160" height="37" rx="4" fill="#475569" fill-opacity="0.4"/>
    <text x="14" y="80" fill="#94a3b8" font-size="14" font-weight="700">26 False Positive (30%)</text>
    <text x="320" y="80" fill="#64748b" font-size="11">Auto-dismissed</text>

    <rect x="0" y="104" width="530" height="45" rx="6" fill="#1e293b" stroke="#334155" stroke-width="1"/>
    <rect x="4" y="108" width="80" height="37" rx="4" fill="#ca8a04" fill-opacity="0.3"/>
    <text x="14" y="132" fill="#fde047" font-size="14" font-weight="700">13 Needs Review (15%)</text>
    <text x="320" y="132" fill="#64748b" font-size="11">Likely intentional</text>
  </g>

  <!-- ═══ ROW 3: Scanner Breakdown ═══ -->
  <text x="60" y="480" fill="#c084fc" font-size="12" font-weight="600" letter-spacing="1.5">FINDINGS BY SCANNER</text>
  <text x="620" y="480" fill="#c084fc" font-size="12" font-weight="600" letter-spacing="1.5">TOP CWEs FOUND</text>

  <g transform="translate(40, 495)">
    <rect x="0" y="0" width="530" height="38" rx="5" fill="#1e293b" stroke="#334155" stroke-width="1"/>
    <rect x="0" y="0" width="280" height="38" rx="5" fill="#7c3aed" fill-opacity="0.25"/>
    <text x="14" y="24" fill="#c4b5fd" font-size="13" font-weight="600">API Security</text>
    <text x="500" y="24" fill="#e2e8f0" font-size="14" font-weight="700" text-anchor="end">47</text>

    <rect x="0" y="44" width="530" height="38" rx="5" fill="#1e293b" stroke="#334155" stroke-width="1"/>
    <rect x="0" y="44" width="220" height="38" rx="5" fill="#7c3aed" fill-opacity="0.25"/>
    <text x="14" y="68" fill="#c4b5fd" font-size="13" font-weight="600">Secrets</text>
    <text x="500" y="68" fill="#e2e8f0" font-size="14" font-weight="700" text-anchor="end">37</text>

    <rect x="0" y="88" width="530" height="38" rx="5" fill="#1e293b" stroke="#334155" stroke-width="1"/>
    <rect x="0" y="88" width="20" height="38" rx="5" fill="#7c3aed" fill-opacity="0.25"/>
    <text x="14" y="112" fill="#c4b5fd" font-size="13" font-weight="600">SBOM / Dependencies</text>
    <text x="500" y="112" fill="#e2e8f0" font-size="14" font-weight="700" text-anchor="end">3</text>

    <rect x="0" y="132" width="530" height="38" rx="5" fill="#1e293b" stroke="#334155" stroke-width="1"/>
    <text x="14" y="156" fill="#c4b5fd" font-size="13" font-weight="600">IaC</text>
    <text x="500" y="156" fill="#4ade80" font-size="14" font-weight="700" text-anchor="end">0 (clean)</text>
  </g>

  <!-- Top CWEs -->
  <g transform="translate(620, 495)">
    <rect x="0" y="0" width="530" height="38" rx="5" fill="#1e293b" stroke="#334155" stroke-width="1"/>
    <text x="14" y="24" fill="#fca5a5" font-size="13" font-weight="600">CWE-862</text>
    <text x="130" y="24" fill="#94a3b8" font-size="11">Missing Authorization</text>
    <text x="500" y="24" fill="#e2e8f0" font-size="14" font-weight="700" text-anchor="end">45</text>

    <rect x="0" y="44" width="530" height="38" rx="5" fill="#1e293b" stroke="#334155" stroke-width="1"/>
    <text x="14" y="68" fill="#fca5a5" font-size="13" font-weight="600">CWE-798</text>
    <text x="130" y="68" fill="#94a3b8" font-size="11">Hardcoded Credentials</text>
    <text x="500" y="68" fill="#e2e8f0" font-size="14" font-weight="700" text-anchor="end">35</text>

    <rect x="0" y="88" width="530" height="38" rx="5" fill="#1e293b" stroke="#334155" stroke-width="1"/>
    <text x="14" y="112" fill="#fdba74" font-size="13" font-weight="600">CWE-306</text>
    <text x="130" y="112" fill="#94a3b8" font-size="11">Missing Authentication</text>
    <text x="500" y="112" fill="#e2e8f0" font-size="14" font-weight="700" text-anchor="end">2</text>

    <rect x="0" y="132" width="530" height="38" rx="5" fill="#1e293b" stroke="#334155" stroke-width="1"/>
    <text x="14" y="156" fill="#fdba74" font-size="13" font-weight="600">CWE-200</text>
    <text x="130" y="156" fill="#94a3b8" font-size="11">Information Exposure</text>
    <text x="500" y="156" fill="#e2e8f0" font-size="14" font-weight="700" text-anchor="end">2</text>
  </g>

  <!-- ═══ ROW 4: Compliance Impact ═══ -->
  <text x="60" y="690" fill="#fb923c" font-size="12" font-weight="600" letter-spacing="1.5">COMPLIANCE IMPACT — 8 CONTROLS AFFECTED</text>

  <!-- SOC 2 -->
  <rect x="40" y="705" width="555" height="160" rx="8" fill="#1e293b" stroke="#f97316" stroke-width="1.5"/>
  <text x="60" y="730" fill="#fdba74" font-size="15" font-weight="700">SOC 2 Type II — 4 controls</text>

  <g transform="translate(60, 745)" fill="#cbd5e1" font-size="11">
    <rect x="0" y="0" width="515" height="26" rx="3" fill="#0f172a"/>
    <text x="10" y="18" font-weight="700" fill="#f97316">CC6.1</text>
    <text x="65" y="18">Logical and Physical Access Controls</text>
    <text x="350" y="18" fill="#94a3b8" font-size="9">CWE-862, 798, 256, 522, 200</text>

    <rect x="0" y="30" width="515" height="26" rx="3" fill="#1e293b"/>
    <text x="10" y="48" font-weight="700" fill="#f97316">CC8.1</text>
    <text x="65" y="48">Change Management</text>
    <text x="350" y="48" fill="#94a3b8" font-size="9">CWE-798</text>

    <rect x="0" y="60" width="515" height="26" rx="3" fill="#0f172a"/>
    <text x="10" y="78" font-weight="700" fill="#f97316">CC7.2</text>
    <text x="65" y="78">Incident and Change Management</text>
    <text x="350" y="78" fill="#94a3b8" font-size="9">CWE-200</text>

    <rect x="0" y="90" width="515" height="26" rx="3" fill="#1e293b"/>
    <text x="10" y="108" font-weight="700" fill="#f97316">CC6.8</text>
    <text x="65" y="108">Vulnerability Management</text>
    <text x="350" y="108" fill="#94a3b8" font-size="9">CWE-400, 770</text>
  </g>

  <!-- ASVS -->
  <rect x="615" y="705" width="545" height="160" rx="8" fill="#1e293b" stroke="#f97316" stroke-width="1.5"/>
  <text x="635" y="730" fill="#fdba74" font-size="15" font-weight="700">OWASP ASVS 4.0 — 4 controls</text>

  <g transform="translate(635, 745)" fill="#cbd5e1" font-size="11">
    <rect x="0" y="0" width="505" height="26" rx="3" fill="#0f172a"/>
    <text x="10" y="18" font-weight="700" fill="#f97316">V1.2</text>
    <text x="55" y="18">Authentication Architecture</text>
    <text x="340" y="18" fill="#94a3b8" font-size="9">CWE-862, 798, 256, 522, 200</text>

    <rect x="0" y="30" width="505" height="26" rx="3" fill="#1e293b"/>
    <text x="10" y="48" font-weight="700" fill="#f97316">V14.2</text>
    <text x="55" y="48">Dependency Security</text>
    <text x="340" y="48" fill="#94a3b8" font-size="9">CWE-798</text>

    <rect x="0" y="60" width="505" height="26" rx="3" fill="#0f172a"/>
    <text x="10" y="78" font-weight="700" fill="#f97316">V1.1</text>
    <text x="55" y="78">Secure SDLC</text>
    <text x="340" y="78" fill="#94a3b8" font-size="9">CWE-798</text>

    <rect x="0" y="90" width="505" height="26" rx="3" fill="#1e293b"/>
    <text x="10" y="108" font-weight="700" fill="#f97316">V9.1</text>
    <text x="55" y="108">Client Communication Security</text>
    <text x="340" y="108" fill="#94a3b8" font-size="9">CWE-522</text>
  </g>

  <!-- ═══ ROW 5: Before/After ═══ -->
  <text x="60" y="900" fill="#22d3ee" font-size="12" font-weight="600" letter-spacing="1.5">BEFORE vs AFTER</text>

  <rect x="40" y="915" width="545" height="75" rx="8" fill="#1e293b" stroke="#ef4444" stroke-width="1.5"/>
  <text x="60" y="940" fill="#fca5a5" font-size="14" font-weight="700">Without CVERiskPilot</text>
  <text x="60" y="960" fill="#cbd5e1" font-size="12">npm audit → 3 findings → no compliance context</text>
  <text x="60" y="978" fill="#94a3b8" font-size="11">Manual spreadsheet mapping: ~40 hours/quarter</text>

  <rect x="615" y="915" width="545" height="75" rx="8" fill="#1e293b" stroke="#22c55e" stroke-width="1.5"/>
  <text x="635" y="940" fill="#4ade80" font-size="14" font-weight="700">With CVERiskPilot</text>
  <text x="635" y="960" fill="#cbd5e1" font-size="12">87 findings → 8 controls affected → exact audit impact</text>
  <text x="635" y="978" fill="#94a3b8" font-size="11">Automated mapping: 28 seconds</text>

  <!-- Footer -->
  <text x="600" y="1025" text-anchor="middle" fill="#475569" font-size="11">CVERiskPilot v0.3.0-beta | npx @cveriskpilot/scan | cveriskpilot.com | 100% Veteran Owned</text>
</svg>
